<svg width="16" height="13" viewBox="0 0 16 13" fill="none" xmlns="http://www.w3.org/2000/svg">
<mask id="path-1-inside-1_201_4988" fill="white">
<path fill-rule="evenodd" clip-rule="evenodd" d="M1.80432 10V0.5H0.804321V13H1.80432V11H14.3043V10H1.80432ZM14.3143 8.49H1.80432V7.51H14.8043C15.0749 7.51 15.2943 7.72938 15.2943 8V13H14.3143V8.49ZM4.80432 3.39C4.24651 3.39 3.79432 3.84219 3.79432 4.4C3.79432 4.95781 4.24651 5.41 4.80432 5.41C5.36213 5.41 5.81432 4.95781 5.81432 4.4C5.81432 3.84219 5.36213 3.39 4.80432 3.39ZM2.81432 4.4C2.81432 3.30095 3.70527 2.41 4.80432 2.41C5.90337 2.41 6.79432 3.30095 6.79432 4.4C6.79432 5.49905 5.90337 6.39 4.80432 6.39C3.70527 6.39 2.81432 5.49905 2.81432 4.4ZM7.31432 3C7.31432 2.72938 7.5337 2.51 7.80432 2.51H13.0543C14.3509 2.51 15.2943 3.68832 15.2943 5V6C15.2943 6.27062 15.0749 6.49 14.8043 6.49H7.80432C7.5337 6.49 7.31432 6.27062 7.31432 6V3ZM8.29432 3.49V5.51H14.3143V5C14.3143 4.10254 13.6908 3.49 13.0543 3.49H8.29432Z"/>
</mask>
<path fill-rule="evenodd" clip-rule="evenodd" d="M1.80432 10V0.5H0.804321V13H1.80432V11H14.3043V10H1.80432ZM14.3143 8.49H1.80432V7.51H14.8043C15.0749 7.51 15.2943 7.72938 15.2943 8V13H14.3143V8.49ZM4.80432 3.39C4.24651 3.39 3.79432 3.84219 3.79432 4.4C3.79432 4.95781 4.24651 5.41 4.80432 5.41C5.36213 5.41 5.81432 4.95781 5.81432 4.4C5.81432 3.84219 5.36213 3.39 4.80432 3.39ZM2.81432 4.4C2.81432 3.30095 3.70527 2.41 4.80432 2.41C5.90337 2.41 6.79432 3.30095 6.79432 4.4C6.79432 5.49905 5.90337 6.39 4.80432 6.39C3.70527 6.39 2.81432 5.49905 2.81432 4.4ZM7.31432 3C7.31432 2.72938 7.5337 2.51 7.80432 2.51H13.0543C14.3509 2.51 15.2943 3.68832 15.2943 5V6C15.2943 6.27062 15.0749 6.49 14.8043 6.49H7.80432C7.5337 6.49 7.31432 6.27062 7.31432 6V3ZM8.29432 3.49V5.51H14.3143V5C14.3143 4.10254 13.6908 3.49 13.0543 3.49H8.29432Z" fill="#86889B"/>
<path d="M1.80432 0.5H1.90432C1.90432 0.444772 1.85955 0.4 1.80432 0.4V0.5ZM1.80432 10H1.70432C1.70432 10.0552 1.74909 10.1 1.80432 10.1V10ZM0.804321 0.5V0.4C0.749093 0.4 0.704321 0.444772 0.704321 0.5H0.804321ZM0.804321 13H0.704321C0.704321 13.0552 0.749093 13.1 0.804321 13.1V13ZM1.80432 13V13.1C1.85955 13.1 1.90432 13.0552 1.90432 13H1.80432ZM1.80432 11V10.9C1.74909 10.9 1.70432 10.9448 1.70432 11H1.80432ZM14.3043 11V11.1C14.3595 11.1 14.4043 11.0552 14.4043 11H14.3043ZM14.3043 10H14.4043C14.4043 9.94477 14.3595 9.9 14.3043 9.9V10ZM1.80432 8.49H1.70432C1.70432 8.54523 1.74909 8.59 1.80432 8.59V8.49ZM14.3143 8.49H14.4143C14.4143 8.43477 14.3695 8.39 14.3143 8.39V8.49ZM1.80432 7.51V7.41C1.74909 7.41 1.70432 7.45477 1.70432 7.51H1.80432ZM15.2943 13V13.1C15.3495 13.1 15.3943 13.0552 15.3943 13H15.2943ZM14.3143 13H14.2143C14.2143 13.0552 14.2591 13.1 14.3143 13.1V13ZM8.29432 5.51H8.19432C8.19432 5.56523 8.23909 5.61 8.29432 5.61V5.51ZM8.29432 3.49V3.39C8.23909 3.39 8.19432 3.43477 8.19432 3.49H8.29432ZM14.3143 5.51V5.61C14.3695 5.61 14.4143 5.56523 14.4143 5.51H14.3143ZM1.70432 0.5V10H1.90432V0.5H1.70432ZM0.804321 0.6H1.80432V0.4H0.804321V0.6ZM0.904321 13V0.5H0.704321V13H0.904321ZM1.80432 12.9H0.804321V13.1H1.80432V12.9ZM1.70432 11V13H1.90432V11H1.70432ZM14.3043 10.9H1.80432V11.1H14.3043V10.9ZM14.2043 10V11H14.4043V10H14.2043ZM1.80432 10.1H14.3043V9.9H1.80432V10.1ZM1.80432 8.59H14.3143V8.39H1.80432V8.59ZM1.70432 7.51V8.49H1.90432V7.51H1.70432ZM14.8043 7.41H1.80432V7.61H14.8043V7.41ZM15.3943 8C15.3943 7.67415 15.1302 7.41 14.8043 7.41V7.61C15.0197 7.61 15.1943 7.78461 15.1943 8H15.3943ZM15.3943 13V8H15.1943V13H15.3943ZM14.3143 13.1H15.2943V12.9H14.3143V13.1ZM14.2143 8.49V13H14.4143V8.49H14.2143ZM3.89432 4.4C3.89432 3.89742 4.30174 3.49 4.80432 3.49V3.29C4.19129 3.29 3.69432 3.78696 3.69432 4.4H3.89432ZM4.80432 5.31C4.30174 5.31 3.89432 4.90258 3.89432 4.4H3.69432C3.69432 5.01304 4.19129 5.51 4.80432 5.51V5.31ZM5.71432 4.4C5.71432 4.90258 5.3069 5.31 4.80432 5.31V5.51C5.41736 5.51 5.91432 5.01304 5.91432 4.4H5.71432ZM4.80432 3.49C5.3069 3.49 5.71432 3.89742 5.71432 4.4H5.91432C5.91432 3.78696 5.41736 3.29 4.80432 3.29V3.49ZM4.80432 2.31C3.65005 2.31 2.71432 3.24572 2.71432 4.4H2.91432C2.91432 3.35618 3.7605 2.51 4.80432 2.51V2.31ZM6.89432 4.4C6.89432 3.24572 5.9586 2.31 4.80432 2.31V2.51C5.84814 2.51 6.69432 3.35618 6.69432 4.4H6.89432ZM4.80432 6.49C5.9586 6.49 6.89432 5.55428 6.89432 4.4H6.69432C6.69432 5.44382 5.84814 6.29 4.80432 6.29V6.49ZM2.71432 4.4C2.71432 5.55428 3.65005 6.49 4.80432 6.49V6.29C3.7605 6.29 2.91432 5.44382 2.91432 4.4H2.71432ZM7.80432 2.41C7.47847 2.41 7.21432 2.67415 7.21432 3H7.41432C7.41432 2.78461 7.58893 2.61 7.80432 2.61V2.41ZM13.0543 2.41H7.80432V2.61H13.0543V2.41ZM15.3943 5C15.3943 3.64687 14.4189 2.41 13.0543 2.41V2.61C14.2828 2.61 15.1943 3.72977 15.1943 5H15.3943ZM15.3943 6V5H15.1943V6H15.3943ZM14.8043 6.59C15.1302 6.59 15.3943 6.32585 15.3943 6H15.1943C15.1943 6.21539 15.0197 6.39 14.8043 6.39V6.59ZM7.80432 6.59H14.8043V6.39H7.80432V6.59ZM7.21432 6C7.21432 6.32585 7.47847 6.59 7.80432 6.59V6.39C7.58893 6.39 7.41432 6.21539 7.41432 6H7.21432ZM7.21432 3V6H7.41432V3H7.21432ZM8.39432 5.51V3.49H8.19432V5.51H8.39432ZM14.3143 5.41H8.29432V5.61H14.3143V5.41ZM14.2143 5V5.51H14.4143V5H14.2143ZM13.0543 3.59C13.6247 3.59 14.2143 4.14621 14.2143 5H14.4143C14.4143 4.05888 13.7569 3.39 13.0543 3.39V3.59ZM8.29432 3.59H13.0543V3.39H8.29432V3.59Z" fill="#86889B" mask="url(#path-1-inside-1_201_4988)"/>
</svg>
