<svg width="15" height="14" viewBox="0 0 15 14" fill="none" xmlns="http://www.w3.org/2000/svg">
<mask id="path-1-inside-1_201_4984" fill="white">
<path d="M6.75432 9.1V10.5L5.35432 10.99V9.58997L6.75432 9.1Z"/>
<path d="M7.45432 6.08997V7.48997L8.85432 7V5.6L7.45432 6.08997Z"/>
<path d="M6.75432 4.9V3.5L5.35432 3.98997V5.38997L6.75432 4.9Z"/>
<path d="M8.85432 2.8L7.45432 3.28997V4.68997L8.85432 4.2V2.8Z"/>
<path d="M6.75432 6.3V7.7L5.35432 8.18997V6.78997L6.75432 6.3Z"/>
<path d="M7.45432 10.29L8.85432 9.8V8.4L7.45432 8.88997V10.29Z"/>
<path fill-rule="evenodd" clip-rule="evenodd" d="M3.60433 2.8L10.6043 0L14.1043 2.8V13.3L0.804321 13.3V9.44996L3.60433 8.39996V2.8ZM4.30433 3.27392L10.2543 0.893923V12.6L1.50432 12.6V9.93506L4.30433 8.88506V3.27392ZM10.9543 1.17644V12.6H13.4043V3.13644L10.9543 1.17644Z"/>
</mask>
<path d="M6.75432 9.1V10.5L5.35432 10.99V9.58997L6.75432 9.1Z" fill="#272C58"/>
<path d="M7.45432 6.08997V7.48997L8.85432 7V5.6L7.45432 6.08997Z" fill="#272C58"/>
<path d="M6.75432 4.9V3.5L5.35432 3.98997V5.38997L6.75432 4.9Z" fill="#272C58"/>
<path d="M8.85432 2.8L7.45432 3.28997V4.68997L8.85432 4.2V2.8Z" fill="#272C58"/>
<path d="M6.75432 6.3V7.7L5.35432 8.18997V6.78997L6.75432 6.3Z" fill="#272C58"/>
<path d="M7.45432 10.29L8.85432 9.8V8.4L7.45432 8.88997V10.29Z" fill="#272C58"/>
<path fill-rule="evenodd" clip-rule="evenodd" d="M3.60433 2.8L10.6043 0L14.1043 2.8V13.3L0.804321 13.3V9.44996L3.60433 8.39996V2.8ZM4.30433 3.27392L10.2543 0.893923V12.6L1.50432 12.6V9.93506L4.30433 8.88506V3.27392ZM10.9543 1.17644V12.6H13.4043V3.13644L10.9543 1.17644Z" fill="#272C58"/>
<path d="M10.6043 0L16.2266 -7.02781L12.1313 -10.3041L7.26182 -8.35629L10.6043 0ZM3.60433 2.8L0.261816 -5.55629L-5.39567 -3.2933V2.8H3.60433ZM14.1043 2.8H23.1043V-1.52562L19.7266 -4.22781L14.1043 2.8ZM14.1043 13.3L14.1043 22.3L23.1043 22.3V13.3H14.1043ZM0.804321 13.3H-8.19568V22.2999L0.804292 22.3L0.804321 13.3ZM0.804321 9.44996L-2.35578 1.02299L-8.19568 3.21294V9.44996H0.804321ZM3.60433 8.39996L6.76443 16.8269L12.6043 14.637V8.39996H3.60433ZM10.2543 0.893923H19.2543V-12.3994L6.91182 -7.46237L10.2543 0.893923ZM4.30433 3.27392L0.961816 -5.08237L-4.69567 -2.81937V3.27392H4.30433ZM10.2543 12.6L10.2543 21.6L19.2543 21.6V12.6H10.2543ZM1.50432 12.6H-7.49568V21.5999L1.50429 21.6L1.50432 12.6ZM1.50432 9.93506L-1.65578 1.50809L-7.49568 3.69805V9.93506H1.50432ZM4.30433 8.88506L7.46443 17.312L13.3043 15.1221V8.88506H4.30433ZM10.9543 12.6H1.95433V21.6H10.9543V12.6ZM10.9543 1.17644L16.5766 -5.85137L1.95433 -17.5492V1.17644H10.9543ZM13.4043 12.6V21.6H22.4043V12.6H13.4043ZM13.4043 3.13644H22.4043V-1.18918L19.0266 -3.89137L13.4043 3.13644ZM6.75432 10.5L9.72729 18.9948L15.7543 16.8855V10.5H6.75432ZM6.75432 9.1H15.7543V-3.58504L3.78135 0.60521L6.75432 9.1ZM5.35432 10.99H-3.64568V23.675L8.32729 19.4848L5.35432 10.99ZM5.35432 9.58997L2.38135 1.09518L-3.64568 3.20449V9.58997H5.35432ZM7.45432 7.48997H-1.54568V20.175L10.4273 15.9848L7.45432 7.48997ZM7.45432 6.08997L4.48135 -2.40482L-1.54568 -0.29551V6.08997H7.45432ZM8.85432 7L11.8273 15.4948L17.8543 13.3855V7H8.85432ZM8.85432 5.6H17.8543V-7.08504L5.88135 -2.89479L8.85432 5.6ZM6.75432 3.5H15.7543V-9.18504L3.78135 -4.99479L6.75432 3.5ZM6.75432 4.9L9.72729 13.3948L15.7543 11.2855V4.9H6.75432ZM5.35432 3.98997L2.38135 -4.50482L-3.64568 -2.39551V3.98997H5.35432ZM5.35432 5.38997H-3.64568V18.075L8.32729 13.8848L5.35432 5.38997ZM7.45432 3.28997L4.48135 -5.20482L-1.54568 -3.09551V3.28997H7.45432ZM8.85432 2.8H17.8543V-9.88504L5.88135 -5.69479L8.85432 2.8ZM7.45432 4.68997H-1.54568V17.375L10.4273 13.1848L7.45432 4.68997ZM8.85432 4.2L11.8273 12.6948L17.8543 10.5855V4.2H8.85432ZM6.75432 7.7L9.72729 16.1948L15.7543 14.0855V7.7H6.75432ZM6.75432 6.3H15.7543V-6.38504L3.78135 -2.19479L6.75432 6.3ZM5.35432 8.18997H-3.64568V20.875L8.32729 16.6848L5.35432 8.18997ZM5.35432 6.78997L2.38135 -1.70482L-3.64568 0.40449V6.78997H5.35432ZM8.85432 9.8L11.8273 18.2948L17.8543 16.1855V9.8H8.85432ZM7.45432 10.29H-1.54568V22.975L10.4273 18.7848L7.45432 10.29ZM8.85432 8.4H17.8543V-4.28504L5.88135 -0.09479L8.85432 8.4ZM7.45432 8.88997L4.48135 0.395176L-1.54568 2.50449V8.88997H7.45432ZM7.26182 -8.35629L0.261816 -5.55629L6.94685 11.1563L13.9468 8.35629L7.26182 -8.35629ZM19.7266 -4.22781L16.2266 -7.02781L4.98207 7.02781L8.48206 9.82781L19.7266 -4.22781ZM23.1043 13.3V2.8H5.10432V13.3H23.1043ZM0.804292 22.3L14.1043 22.3L14.1044 4.3L0.80435 4.29996L0.804292 22.3ZM-8.19568 9.44996V13.3H9.80432V9.44996H-8.19568ZM0.444232 -0.0270094L-2.35578 1.02299L3.96442 17.8769L6.76443 16.8269L0.444232 -0.0270094ZM-5.39567 2.8V8.39996H12.6043V2.8H-5.39567ZM6.91182 -7.46237L0.961816 -5.08237L7.64685 11.6302L13.5968 9.25021L6.91182 -7.46237ZM19.2543 12.6V0.893923H1.25433V12.6H19.2543ZM1.50429 21.6L10.2543 21.6L10.2544 3.6L1.50435 3.59997L1.50429 21.6ZM-7.49568 9.93506V12.6H10.5043V9.93506H-7.49568ZM1.14423 0.458092L-1.65578 1.50809L4.66442 18.362L7.46443 17.312L1.14423 0.458092ZM-4.69567 3.27392V8.88506H13.3043V3.27392H-4.69567ZM19.9543 12.6V1.17644H1.95433V12.6H19.9543ZM13.4043 3.6H10.9543V21.6H13.4043V3.6ZM4.40432 3.13644V12.6H22.4043V3.13644H4.40432ZM5.33207 8.20425L7.78205 10.1642L19.0266 -3.89137L16.5766 -5.85137L5.33207 8.20425ZM15.7543 10.5V9.1H-2.24568V10.5H15.7543ZM8.32729 19.4848L9.72729 18.9948L3.78135 2.00521L2.38135 2.49518L8.32729 19.4848ZM-3.64568 9.58997V10.99H14.3543V9.58997H-3.64568ZM3.78135 0.60521L2.38135 1.09518L8.32729 18.0848L9.72729 17.5948L3.78135 0.60521ZM16.4543 7.48997V6.08997H-1.54568V7.48997H16.4543ZM5.88135 -1.49479L4.48135 -1.00482L10.4273 15.9848L11.8273 15.4948L5.88135 -1.49479ZM-0.145679 5.6V7H17.8543V5.6H-0.145679ZM10.4273 14.5848L11.8273 14.0948L5.88135 -2.89479L4.48135 -2.40482L10.4273 14.5848ZM-2.24568 3.5V4.9H15.7543V3.5H-2.24568ZM8.32729 12.4848L9.72729 11.9948L3.78135 -4.99479L2.38135 -4.50482L8.32729 12.4848ZM14.3543 5.38997V3.98997H-3.64568V5.38997H14.3543ZM3.78135 -3.59479L2.38135 -3.10482L8.32729 13.8848L9.72729 13.3948L3.78135 -3.59479ZM10.4273 11.7848L11.8273 11.2948L5.88135 -5.69479L4.48135 -5.20482L10.4273 11.7848ZM16.4543 4.68997V3.28997H-1.54568V4.68997H16.4543ZM5.88135 -4.29479L4.48135 -3.80482L10.4273 13.1848L11.8273 12.6948L5.88135 -4.29479ZM-0.145679 2.8V4.2H17.8543V2.8H-0.145679ZM15.7543 7.7V6.3H-2.24568V7.7H15.7543ZM8.32729 16.6848L9.72729 16.1948L3.78135 -0.79479L2.38135 -0.304824L8.32729 16.6848ZM-3.64568 6.78997V8.18997H14.3543V6.78997H-3.64568ZM3.78135 -2.19479L2.38135 -1.70482L8.32729 15.2848L9.72729 14.7948L3.78135 -2.19479ZM5.88135 1.30521L4.48135 1.79518L10.4273 18.7848L11.8273 18.2948L5.88135 1.30521ZM-0.145679 8.4V9.8H17.8543V8.4H-0.145679ZM10.4273 17.3848L11.8273 16.8948L5.88135 -0.09479L4.48135 0.395176L10.4273 17.3848ZM16.4543 10.29V8.88997H-1.54568V10.29H16.4543Z" fill="#86889B" mask="url(#path-1-inside-1_201_4984)"/>
</svg>
