<svg width="28" height="34" viewBox="0 0 28 34" fill="none" xmlns="http://www.w3.org/2000/svg">
<mask id="path-1-outside-1_128_8053" maskUnits="userSpaceOnUse" x="0" y="0" width="28" height="34" fill="black">
<rect fill="white" width="28" height="34"/>
<path fill-rule="evenodd" clip-rule="evenodd" d="M17.1865 25.5723C22.2673 24.1765 26 19.5241 26 14C26 7.37258 20.6274 2 14 2C7.37258 2 2 7.37258 2 14C2 19.5241 5.73271 24.1765 10.8135 25.5723L13.376 29.416L14 30.3521L14.624 29.416L17.1865 25.5723ZM12.8661 25.9471C13.2394 25.9821 13.6176 26 14 26C14.3824 26 14.7606 25.9821 15.1339 25.9471L14 27.6479L12.8661 25.9471Z"/>
</mask>
<path fill-rule="evenodd" clip-rule="evenodd" d="M17.1865 25.5723C22.2673 24.1765 26 19.5241 26 14C26 7.37258 20.6274 2 14 2C7.37258 2 2 7.37258 2 14C2 19.5241 5.73271 24.1765 10.8135 25.5723L13.376 29.416L14 30.3521L14.624 29.416L17.1865 25.5723ZM12.8661 25.9471C13.2394 25.9821 13.6176 26 14 26C14.3824 26 14.7606 25.9821 15.1339 25.9471L14 27.6479L12.8661 25.9471Z" fill="#274293"/>
<path d="M17.1865 25.5723L16.6567 23.6438L15.9366 23.8416L15.5224 24.4629L17.1865 25.5723ZM10.8135 25.5723L12.4776 24.4629L12.0634 23.8416L11.3433 23.6438L10.8135 25.5723ZM13.376 29.416L11.7119 30.5254V30.5254L13.376 29.416ZM14 30.3521L12.3359 31.4615L14 33.9576L15.6641 31.4615L14 30.3521ZM14.624 29.416L16.2881 30.5254V30.5254L14.624 29.416ZM12.8661 25.9471L13.0528 23.9559L8.87383 23.5642L11.202 27.0565L12.8661 25.9471ZM15.1339 25.9471L16.798 27.0565L19.1262 23.5642L14.9472 23.9559L15.1339 25.9471ZM14 27.6479L12.3359 28.7573L14 31.2535L15.6641 28.7573L14 27.6479ZM24 14C24 18.6006 20.8915 22.4803 16.6567 23.6438L17.7163 27.5009C23.6431 25.8726 28 20.4477 28 14H24ZM14 4C19.5228 4 24 8.47715 24 14H28C28 6.26801 21.732 0 14 0V4ZM4 14C4 8.47715 8.47715 4 14 4V0C6.26801 0 0 6.26801 0 14H4ZM11.3433 23.6438C7.10849 22.4803 4 18.6006 4 14H0C0 20.4477 4.35693 25.8726 10.2837 27.5009L11.3433 23.6438ZM15.0401 28.3066L12.4776 24.4629L9.1494 26.6817L11.7119 30.5254L15.0401 28.3066ZM15.6641 29.2427L15.0401 28.3066L11.7119 30.5254L12.3359 31.4615L15.6641 29.2427ZM12.9599 28.3066L12.3359 29.2427L15.6641 31.4615L16.2881 30.5254L12.9599 28.3066ZM15.5224 24.4629L12.9599 28.3066L16.2881 30.5254L18.8506 26.6817L15.5224 24.4629ZM14 24C13.68 24 13.3641 23.985 13.0528 23.9559L12.6795 27.9384C13.1147 27.9792 13.5552 28 14 28V24ZM14.9472 23.9559C14.6359 23.985 14.32 24 14 24V28C14.4448 28 14.8853 27.9792 15.3205 27.9384L14.9472 23.9559ZM15.6641 28.7573L16.798 27.0565L13.4698 24.8377L12.3359 26.5385L15.6641 28.7573ZM11.202 27.0565L12.3359 28.7573L15.6641 26.5385L14.5302 24.8377L11.202 27.0565Z" fill="#274293" fill-opacity="0.2" mask="url(#path-1-outside-1_128_8053)"/>
<path d="M19.8224 12.6225L19.8104 12.613L14.3105 8.11292C14.1263 7.96236 13.8616 7.96236 13.6775 8.11292L8.17758 12.613C7.96881 12.7891 7.94004 13.1002 8.11296 13.3116C8.28589 13.5231 8.5965 13.5566 8.81056 13.387L9.49405 12.828V18.5C9.49405 18.7761 9.71791 19 9.99404 19H17.9939C18.27 19 18.4939 18.7761 18.4939 18.5V12.828L19.1774 13.387C19.3885 13.5651 19.704 13.5383 19.8821 13.3272C20.0602 13.1161 20.0335 12.8006 19.8224 12.6225Z" fill="white"/>
</svg>
