<svg width="16" height="16" viewBox="0 0 16 16" fill="none" xmlns="http://www.w3.org/2000/svg">
<path d="M12.586 1.59999H15.2V3.19999H12.586C12.3093 3.67823 11.7923 3.99999 11.2 3.99999C10.6078 3.99999 10.0907 3.67823 9.8141 3.19999L0.800049 3.19999V1.59999L9.8141 1.59999C10.0907 1.12175 10.6078 0.799988 11.2 0.799988C11.7923 0.799988 12.3093 1.12175 12.586 1.59999Z" fill="white"/>
<path d="M15.2 7.19999L6.186 7.19999C5.90935 6.72175 5.39227 6.39999 4.80005 6.39999C4.20782 6.39999 3.69075 6.72175 3.4141 7.19999H0.800049L0.800049 8.79999H3.4141C3.69075 9.27823 4.20782 9.59999 4.80005 9.59999C5.39227 9.59999 5.90935 9.27823 6.186 8.79999H15.2V7.19999Z" fill="white"/>
<path d="M6.6141 12.8H0.800049L0.800049 14.4H6.6141C6.89075 14.8782 7.40782 15.2 8.00005 15.2C8.59227 15.2 9.10935 14.8782 9.386 14.4H15.2V12.8H9.386C9.10935 12.3217 8.59227 12 8.00005 12C7.40782 12 6.89075 12.3217 6.6141 12.8Z" fill="white"/>
</svg>
